<mxfile host="app.diagrams.net" modified="2023-07-21T09:35:02.391Z" agent="Mozilla/5.0 (Windows NT 10.0; Win64; x64) AppleWebKit/537.36 (KHTML, like Gecko) Chrome/114.0.0.0 Safari/537.36 Edg/114.0.1823.82" etag="_VJOQ3g5zSeiTXCk2dw9" version="21.6.2" type="github">
  <diagram name="第 1 页" id="eFLcW4rc1OjBL_pe3tL0">
    <mxGraphModel dx="2846" dy="2324" grid="1" gridSize="10" guides="1" tooltips="1" connect="1" arrows="1" fold="1" page="1" pageScale="1" pageWidth="827" pageHeight="1169" math="0" shadow="0">
      <root>
        <mxCell id="0" />
        <mxCell id="1" parent="0" />
        <mxCell id="zmStRXuhUgsYv_nEsaAY-51" value="" style="rounded=0;whiteSpace=wrap;html=1;" vertex="1" parent="1">
          <mxGeometry x="-400" y="-280" width="1840" height="720" as="geometry" />
        </mxCell>
        <mxCell id="zmStRXuhUgsYv_nEsaAY-1" value="" style="rounded=0;whiteSpace=wrap;html=1;align=left;" vertex="1" parent="1">
          <mxGeometry x="200" y="200" width="240" height="160" as="geometry" />
        </mxCell>
        <mxCell id="zmStRXuhUgsYv_nEsaAY-2" value="" style="rounded=0;whiteSpace=wrap;html=1;" vertex="1" parent="1">
          <mxGeometry x="440" y="160" width="80" height="200" as="geometry" />
        </mxCell>
        <mxCell id="zmStRXuhUgsYv_nEsaAY-3" value="&lt;font style=&quot;font-size: 32px;&quot;&gt;ramblock&lt;/font&gt;" style="rounded=0;whiteSpace=wrap;html=1;" vertex="1" parent="1">
          <mxGeometry x="200" y="160" width="240" height="40" as="geometry" />
        </mxCell>
        <mxCell id="zmStRXuhUgsYv_nEsaAY-4" value="&lt;span style=&quot;background-color: initial;&quot;&gt;&lt;font style=&quot;font-size: 28px;&quot;&gt;dirty bitmap&lt;/font&gt;&lt;/span&gt;" style="text;html=1;strokeColor=none;fillColor=#F19C99;align=left;verticalAlign=middle;whiteSpace=wrap;rounded=0;" vertex="1" parent="1">
          <mxGeometry x="240" y="320" width="200" height="40" as="geometry" />
        </mxCell>
        <mxCell id="zmStRXuhUgsYv_nEsaAY-5" value="&lt;font style=&quot;font-size: 28px;&quot;&gt;+&lt;/font&gt;" style="text;html=1;strokeColor=none;fillColor=#F19C99;align=center;verticalAlign=middle;whiteSpace=wrap;rounded=0;" vertex="1" parent="1">
          <mxGeometry x="200" y="320" width="40" height="40" as="geometry" />
        </mxCell>
        <mxCell id="zmStRXuhUgsYv_nEsaAY-6" value="&lt;span style=&quot;background-color: initial;&quot;&gt;&lt;font style=&quot;font-size: 28px;&quot;&gt;start_addr&lt;/font&gt;&lt;/span&gt;" style="text;html=1;strokeColor=none;fillColor=none;align=left;verticalAlign=middle;whiteSpace=wrap;rounded=0;" vertex="1" parent="1">
          <mxGeometry x="240" y="200" width="200" height="40" as="geometry" />
        </mxCell>
        <mxCell id="zmStRXuhUgsYv_nEsaAY-7" value="&lt;font style=&quot;font-size: 28px;&quot;&gt;+&lt;/font&gt;" style="text;html=1;strokeColor=none;fillColor=none;align=center;verticalAlign=middle;whiteSpace=wrap;rounded=0;" vertex="1" parent="1">
          <mxGeometry x="200" y="200" width="40" height="40" as="geometry" />
        </mxCell>
        <mxCell id="zmStRXuhUgsYv_nEsaAY-8" value="&lt;span style=&quot;background-color: initial;&quot;&gt;&lt;font style=&quot;font-size: 28px;&quot;&gt;used_length&lt;/font&gt;&lt;/span&gt;" style="text;html=1;strokeColor=none;fillColor=none;align=left;verticalAlign=middle;whiteSpace=wrap;rounded=0;" vertex="1" parent="1">
          <mxGeometry x="240" y="240" width="200" height="40" as="geometry" />
        </mxCell>
        <mxCell id="zmStRXuhUgsYv_nEsaAY-9" value="&lt;font style=&quot;font-size: 28px;&quot;&gt;+&lt;/font&gt;" style="text;html=1;strokeColor=none;fillColor=none;align=center;verticalAlign=middle;whiteSpace=wrap;rounded=0;" vertex="1" parent="1">
          <mxGeometry x="200" y="240" width="40" height="40" as="geometry" />
        </mxCell>
        <mxCell id="zmStRXuhUgsYv_nEsaAY-10" value="&lt;span style=&quot;background-color: initial;&quot;&gt;&lt;font style=&quot;font-size: 28px;&quot;&gt;......&lt;/font&gt;&lt;/span&gt;" style="text;html=1;strokeColor=none;fillColor=none;align=left;verticalAlign=middle;whiteSpace=wrap;rounded=0;" vertex="1" parent="1">
          <mxGeometry x="240" y="280" width="200" height="40" as="geometry" />
        </mxCell>
        <mxCell id="zmStRXuhUgsYv_nEsaAY-11" value="&lt;font style=&quot;font-size: 28px;&quot;&gt;+&lt;/font&gt;" style="text;html=1;strokeColor=none;fillColor=none;align=center;verticalAlign=middle;whiteSpace=wrap;rounded=0;" vertex="1" parent="1">
          <mxGeometry x="200" y="280" width="40" height="40" as="geometry" />
        </mxCell>
        <mxCell id="zmStRXuhUgsYv_nEsaAY-12" value="" style="rounded=0;whiteSpace=wrap;html=1;align=left;" vertex="1" parent="1">
          <mxGeometry x="600" y="200" width="240" height="160" as="geometry" />
        </mxCell>
        <mxCell id="zmStRXuhUgsYv_nEsaAY-13" value="" style="rounded=0;whiteSpace=wrap;html=1;" vertex="1" parent="1">
          <mxGeometry x="840" y="160" width="80" height="200" as="geometry" />
        </mxCell>
        <mxCell id="zmStRXuhUgsYv_nEsaAY-14" value="&lt;font style=&quot;font-size: 32px;&quot;&gt;ramblock&lt;/font&gt;" style="rounded=0;whiteSpace=wrap;html=1;" vertex="1" parent="1">
          <mxGeometry x="600" y="160" width="240" height="40" as="geometry" />
        </mxCell>
        <mxCell id="zmStRXuhUgsYv_nEsaAY-15" value="&lt;span style=&quot;background-color: initial;&quot;&gt;&lt;font style=&quot;font-size: 28px;&quot;&gt;dirty bitmap&lt;/font&gt;&lt;/span&gt;" style="text;html=1;strokeColor=none;fillColor=#F19C99;align=left;verticalAlign=middle;whiteSpace=wrap;rounded=0;" vertex="1" parent="1">
          <mxGeometry x="640" y="320" width="200" height="40" as="geometry" />
        </mxCell>
        <mxCell id="zmStRXuhUgsYv_nEsaAY-16" value="&lt;font style=&quot;font-size: 28px;&quot;&gt;+&lt;/font&gt;" style="text;html=1;strokeColor=none;fillColor=#F19C99;align=center;verticalAlign=middle;whiteSpace=wrap;rounded=0;" vertex="1" parent="1">
          <mxGeometry x="600" y="320" width="40" height="40" as="geometry" />
        </mxCell>
        <mxCell id="zmStRXuhUgsYv_nEsaAY-17" value="&lt;span style=&quot;background-color: initial;&quot;&gt;&lt;font style=&quot;font-size: 28px;&quot;&gt;start_addr&lt;/font&gt;&lt;/span&gt;" style="text;html=1;strokeColor=none;fillColor=none;align=left;verticalAlign=middle;whiteSpace=wrap;rounded=0;" vertex="1" parent="1">
          <mxGeometry x="640" y="200" width="200" height="40" as="geometry" />
        </mxCell>
        <mxCell id="zmStRXuhUgsYv_nEsaAY-18" value="&lt;font style=&quot;font-size: 28px;&quot;&gt;+&lt;/font&gt;" style="text;html=1;strokeColor=none;fillColor=none;align=center;verticalAlign=middle;whiteSpace=wrap;rounded=0;" vertex="1" parent="1">
          <mxGeometry x="600" y="200" width="40" height="40" as="geometry" />
        </mxCell>
        <mxCell id="zmStRXuhUgsYv_nEsaAY-19" value="&lt;span style=&quot;background-color: initial;&quot;&gt;&lt;font style=&quot;font-size: 28px;&quot;&gt;used_length&lt;/font&gt;&lt;/span&gt;" style="text;html=1;strokeColor=none;fillColor=none;align=left;verticalAlign=middle;whiteSpace=wrap;rounded=0;" vertex="1" parent="1">
          <mxGeometry x="640" y="240" width="200" height="40" as="geometry" />
        </mxCell>
        <mxCell id="zmStRXuhUgsYv_nEsaAY-20" value="&lt;font style=&quot;font-size: 28px;&quot;&gt;+&lt;/font&gt;" style="text;html=1;strokeColor=none;fillColor=none;align=center;verticalAlign=middle;whiteSpace=wrap;rounded=0;" vertex="1" parent="1">
          <mxGeometry x="600" y="240" width="40" height="40" as="geometry" />
        </mxCell>
        <mxCell id="zmStRXuhUgsYv_nEsaAY-21" value="&lt;span style=&quot;background-color: initial;&quot;&gt;&lt;font style=&quot;font-size: 28px;&quot;&gt;......&lt;/font&gt;&lt;/span&gt;" style="text;html=1;strokeColor=none;fillColor=none;align=left;verticalAlign=middle;whiteSpace=wrap;rounded=0;" vertex="1" parent="1">
          <mxGeometry x="640" y="280" width="200" height="40" as="geometry" />
        </mxCell>
        <mxCell id="zmStRXuhUgsYv_nEsaAY-22" value="&lt;font style=&quot;font-size: 28px;&quot;&gt;+&lt;/font&gt;" style="text;html=1;strokeColor=none;fillColor=none;align=center;verticalAlign=middle;whiteSpace=wrap;rounded=0;" vertex="1" parent="1">
          <mxGeometry x="600" y="280" width="40" height="40" as="geometry" />
        </mxCell>
        <mxCell id="zmStRXuhUgsYv_nEsaAY-23" value="" style="rounded=0;whiteSpace=wrap;html=1;" vertex="1" parent="1">
          <mxGeometry x="40" y="160" width="80" height="200" as="geometry" />
        </mxCell>
        <mxCell id="zmStRXuhUgsYv_nEsaAY-25" style="edgeStyle=orthogonalEdgeStyle;rounded=0;orthogonalLoop=1;jettySize=auto;html=1;exitX=1;exitY=0.5;exitDx=0;exitDy=0;entryX=0;entryY=0.5;entryDx=0;entryDy=0;" edge="1" parent="1" source="zmStRXuhUgsYv_nEsaAY-24" target="zmStRXuhUgsYv_nEsaAY-9">
          <mxGeometry relative="1" as="geometry" />
        </mxCell>
        <mxCell id="zmStRXuhUgsYv_nEsaAY-24" value="" style="ellipse;whiteSpace=wrap;html=1;aspect=fixed;fillColor=#000000;" vertex="1" parent="1">
          <mxGeometry x="70" y="250" width="20" height="20" as="geometry" />
        </mxCell>
        <mxCell id="zmStRXuhUgsYv_nEsaAY-26" value="&lt;div style=&quot;&quot;&gt;&lt;span style=&quot;font-size: 28px; background-color: initial;&quot;&gt;ramblock&lt;/span&gt;&lt;/div&gt;&lt;span style=&quot;background-color: initial;&quot;&gt;&lt;div style=&quot;&quot;&gt;&lt;span style=&quot;font-size: 28px; background-color: initial;&quot;&gt;list&lt;/span&gt;&lt;/div&gt;&lt;/span&gt;" style="text;html=1;strokeColor=none;fillColor=none;align=center;verticalAlign=middle;whiteSpace=wrap;rounded=0;" vertex="1" parent="1">
          <mxGeometry y="80" width="160" height="80" as="geometry" />
        </mxCell>
        <mxCell id="zmStRXuhUgsYv_nEsaAY-28" style="edgeStyle=orthogonalEdgeStyle;rounded=0;orthogonalLoop=1;jettySize=auto;html=1;exitX=1;exitY=0.5;exitDx=0;exitDy=0;entryX=0;entryY=0.5;entryDx=0;entryDy=0;" edge="1" parent="1" source="zmStRXuhUgsYv_nEsaAY-27" target="zmStRXuhUgsYv_nEsaAY-20">
          <mxGeometry relative="1" as="geometry" />
        </mxCell>
        <mxCell id="zmStRXuhUgsYv_nEsaAY-27" value="" style="ellipse;whiteSpace=wrap;html=1;aspect=fixed;fillColor=#000000;" vertex="1" parent="1">
          <mxGeometry x="470" y="250" width="20" height="20" as="geometry" />
        </mxCell>
        <mxCell id="zmStRXuhUgsYv_nEsaAY-30" style="edgeStyle=orthogonalEdgeStyle;rounded=0;orthogonalLoop=1;jettySize=auto;html=1;exitX=1;exitY=0.5;exitDx=0;exitDy=0;" edge="1" parent="1" source="zmStRXuhUgsYv_nEsaAY-29">
          <mxGeometry relative="1" as="geometry">
            <mxPoint x="1000" y="260" as="targetPoint" />
          </mxGeometry>
        </mxCell>
        <mxCell id="zmStRXuhUgsYv_nEsaAY-29" value="" style="ellipse;whiteSpace=wrap;html=1;aspect=fixed;fillColor=#000000;" vertex="1" parent="1">
          <mxGeometry x="870" y="250" width="20" height="20" as="geometry" />
        </mxCell>
        <mxCell id="zmStRXuhUgsYv_nEsaAY-31" value="&lt;span style=&quot;background-color: initial;&quot;&gt;&lt;font style=&quot;font-size: 28px;&quot;&gt;......&lt;/font&gt;&lt;/span&gt;" style="text;html=1;strokeColor=none;fillColor=none;align=left;verticalAlign=middle;whiteSpace=wrap;rounded=0;" vertex="1" parent="1">
          <mxGeometry x="1000" y="240" width="80" height="40" as="geometry" />
        </mxCell>
        <mxCell id="zmStRXuhUgsYv_nEsaAY-32" value="&lt;font style=&quot;font-size: 32px;&quot;&gt;&lt;b&gt;Sync&lt;/b&gt;&lt;br&gt;Drity Page&lt;br&gt;bitmap.&lt;br&gt;&lt;/font&gt;" style="rounded=0;whiteSpace=wrap;html=1;" vertex="1" parent="1">
          <mxGeometry x="-320" y="200" width="240" height="160" as="geometry" />
        </mxCell>
        <mxCell id="zmStRXuhUgsYv_nEsaAY-33" value="&lt;font style=&quot;font-size: 32px;&quot;&gt;KVM&lt;/font&gt;" style="rounded=0;whiteSpace=wrap;html=1;" vertex="1" parent="1">
          <mxGeometry x="-400" y="560" width="1840" height="90" as="geometry" />
        </mxCell>
        <mxCell id="zmStRXuhUgsYv_nEsaAY-35" value="" style="endArrow=classic;html=1;rounded=0;" edge="1" parent="1">
          <mxGeometry width="50" height="50" relative="1" as="geometry">
            <mxPoint x="-200" y="360" as="sourcePoint" />
            <mxPoint x="-200" y="560" as="targetPoint" />
          </mxGeometry>
        </mxCell>
        <mxCell id="zmStRXuhUgsYv_nEsaAY-36" value="&lt;font style=&quot;font-size: 32px;&quot;&gt;(1)&lt;/font&gt;" style="text;html=1;strokeColor=none;fillColor=none;align=center;verticalAlign=middle;whiteSpace=wrap;rounded=0;" vertex="1" parent="1">
          <mxGeometry x="-240" y="480" width="40" height="40" as="geometry" />
        </mxCell>
        <mxCell id="zmStRXuhUgsYv_nEsaAY-40" value="&lt;font style=&quot;font-size: 32px;&quot;&gt;&lt;b&gt;Clear&lt;/b&gt;&lt;br&gt;Drity bits.&lt;br&gt;redo (1).&lt;br&gt;&lt;/font&gt;" style="rounded=0;whiteSpace=wrap;html=1;" vertex="1" parent="1">
          <mxGeometry x="1120" y="200" width="240" height="160" as="geometry" />
        </mxCell>
        <mxCell id="zmStRXuhUgsYv_nEsaAY-41" value="" style="endArrow=classic;html=1;rounded=0;" edge="1" parent="1">
          <mxGeometry width="50" height="50" relative="1" as="geometry">
            <mxPoint x="1240" y="360" as="sourcePoint" />
            <mxPoint x="1240" y="560" as="targetPoint" />
          </mxGeometry>
        </mxCell>
        <mxCell id="zmStRXuhUgsYv_nEsaAY-42" value="&lt;font style=&quot;font-size: 32px;&quot;&gt;(3)&lt;/font&gt;" style="text;html=1;strokeColor=none;fillColor=none;align=center;verticalAlign=middle;whiteSpace=wrap;rounded=0;" vertex="1" parent="1">
          <mxGeometry x="1200" y="480" width="40" height="40" as="geometry" />
        </mxCell>
        <mxCell id="zmStRXuhUgsYv_nEsaAY-43" value="" style="endArrow=classic;html=1;rounded=0;entryX=0.5;entryY=1;entryDx=0;entryDy=0;exitX=0.496;exitY=-0.002;exitDx=0;exitDy=0;exitPerimeter=0;" edge="1" parent="1" source="zmStRXuhUgsYv_nEsaAY-33" target="zmStRXuhUgsYv_nEsaAY-4">
          <mxGeometry width="50" height="50" relative="1" as="geometry">
            <mxPoint x="520" y="560" as="sourcePoint" />
            <mxPoint x="570" y="510" as="targetPoint" />
          </mxGeometry>
        </mxCell>
        <mxCell id="zmStRXuhUgsYv_nEsaAY-44" value="" style="endArrow=classic;html=1;rounded=0;entryX=0.5;entryY=1;entryDx=0;entryDy=0;exitX=0.565;exitY=-0.002;exitDx=0;exitDy=0;exitPerimeter=0;" edge="1" parent="1" source="zmStRXuhUgsYv_nEsaAY-33" target="zmStRXuhUgsYv_nEsaAY-15">
          <mxGeometry width="50" height="50" relative="1" as="geometry">
            <mxPoint x="540" y="530" as="sourcePoint" />
            <mxPoint x="350" y="490" as="targetPoint" />
          </mxGeometry>
        </mxCell>
        <mxCell id="zmStRXuhUgsYv_nEsaAY-45" value="&lt;font style=&quot;font-size: 32px;&quot;&gt;(2) sync&lt;/font&gt;" style="text;html=1;strokeColor=none;fillColor=none;align=center;verticalAlign=middle;whiteSpace=wrap;rounded=0;" vertex="1" parent="1">
          <mxGeometry x="480" y="480" width="190" height="40" as="geometry" />
        </mxCell>
        <mxCell id="zmStRXuhUgsYv_nEsaAY-46" value="" style="endArrow=none;html=1;rounded=0;entryX=1;entryY=1;entryDx=0;entryDy=0;" edge="1" parent="1" target="zmStRXuhUgsYv_nEsaAY-10">
          <mxGeometry width="50" height="50" relative="1" as="geometry">
            <mxPoint x="200" y="320" as="sourcePoint" />
            <mxPoint x="250" y="270" as="targetPoint" />
          </mxGeometry>
        </mxCell>
        <mxCell id="zmStRXuhUgsYv_nEsaAY-47" value="" style="endArrow=none;html=1;rounded=0;entryX=1;entryY=1;entryDx=0;entryDy=0;" edge="1" parent="1" target="zmStRXuhUgsYv_nEsaAY-21">
          <mxGeometry width="50" height="50" relative="1" as="geometry">
            <mxPoint x="600" y="320" as="sourcePoint" />
            <mxPoint x="650" y="270" as="targetPoint" />
          </mxGeometry>
        </mxCell>
        <mxCell id="zmStRXuhUgsYv_nEsaAY-49" value="&lt;font style=&quot;font-size: 32px;&quot;&gt;VM replication()&lt;/font&gt;" style="rounded=0;whiteSpace=wrap;html=1;" vertex="1" parent="1">
          <mxGeometry x="-320" y="160" width="240" height="40" as="geometry" />
        </mxCell>
        <mxCell id="zmStRXuhUgsYv_nEsaAY-50" value="&lt;font style=&quot;font-size: 32px;&quot;&gt;VM replication()&lt;/font&gt;" style="rounded=0;whiteSpace=wrap;html=1;" vertex="1" parent="1">
          <mxGeometry x="1120" y="160" width="240" height="40" as="geometry" />
        </mxCell>
        <mxCell id="zmStRXuhUgsYv_nEsaAY-55" style="edgeStyle=orthogonalEdgeStyle;rounded=0;orthogonalLoop=1;jettySize=auto;html=1;exitX=1;exitY=0.75;exitDx=0;exitDy=0;strokeWidth=2;" edge="1" parent="1" source="zmStRXuhUgsYv_nEsaAY-53">
          <mxGeometry relative="1" as="geometry">
            <mxPoint x="400" y="320" as="targetPoint" />
          </mxGeometry>
        </mxCell>
        <mxCell id="zmStRXuhUgsYv_nEsaAY-53" value="&lt;font style=&quot;font-size: 32px;&quot;&gt;At begining,set all pages dirty.&lt;br&gt;(set bitmap all &quot;1&quot;s)&lt;br&gt;&lt;/font&gt;" style="rounded=0;whiteSpace=wrap;html=1;" vertex="1" parent="1">
          <mxGeometry x="-80" y="-160" width="280" height="160" as="geometry" />
        </mxCell>
        <mxCell id="zmStRXuhUgsYv_nEsaAY-54" value="&lt;font style=&quot;font-size: 32px;&quot;&gt;migration()&lt;/font&gt;" style="rounded=0;whiteSpace=wrap;html=1;" vertex="1" parent="1">
          <mxGeometry x="-80" y="-200" width="280" height="40" as="geometry" />
        </mxCell>
        <mxCell id="zmStRXuhUgsYv_nEsaAY-56" style="edgeStyle=orthogonalEdgeStyle;rounded=0;orthogonalLoop=1;jettySize=auto;html=1;exitX=1;exitY=0.75;exitDx=0;exitDy=0;strokeWidth=2;" edge="1" parent="1" source="zmStRXuhUgsYv_nEsaAY-53">
          <mxGeometry relative="1" as="geometry">
            <mxPoint x="800" y="320" as="targetPoint" />
            <mxPoint x="210" y="-30" as="sourcePoint" />
          </mxGeometry>
        </mxCell>
        <mxCell id="zmStRXuhUgsYv_nEsaAY-60" style="edgeStyle=orthogonalEdgeStyle;rounded=0;orthogonalLoop=1;jettySize=auto;html=1;exitX=0;exitY=0.25;exitDx=0;exitDy=0;strokeWidth=2;strokeColor=#FF0000;" edge="1" parent="1" source="zmStRXuhUgsYv_nEsaAY-57">
          <mxGeometry relative="1" as="geometry">
            <mxPoint x="820" y="320" as="targetPoint" />
          </mxGeometry>
        </mxCell>
        <mxCell id="zmStRXuhUgsYv_nEsaAY-57" value="&lt;font style=&quot;font-size: 32px;&quot;&gt;Read dirty bitmap at &lt;b&gt;(2)&lt;/b&gt; to do checkpoint.&amp;nbsp;&lt;br&gt;&lt;/font&gt;" style="rounded=0;whiteSpace=wrap;html=1;" vertex="1" parent="1">
          <mxGeometry x="920" y="-160" width="320" height="160" as="geometry" />
        </mxCell>
        <mxCell id="zmStRXuhUgsYv_nEsaAY-58" value="&lt;font style=&quot;font-size: 32px;&quot;&gt;VM replication()&lt;/font&gt;" style="rounded=0;whiteSpace=wrap;html=1;" vertex="1" parent="1">
          <mxGeometry x="920" y="-200" width="320" height="40" as="geometry" />
        </mxCell>
        <mxCell id="zmStRXuhUgsYv_nEsaAY-59" value="&lt;font style=&quot;font-size: 32px;&quot;&gt;(4) fill bitmap with all &quot;1&quot;s !&lt;/font&gt;" style="text;html=1;strokeColor=none;fillColor=none;align=center;verticalAlign=middle;whiteSpace=wrap;rounded=0;" vertex="1" parent="1">
          <mxGeometry x="420" y="-40" width="380" height="40" as="geometry" />
        </mxCell>
        <mxCell id="zmStRXuhUgsYv_nEsaAY-61" style="edgeStyle=orthogonalEdgeStyle;rounded=0;orthogonalLoop=1;jettySize=auto;html=1;exitX=0;exitY=0.25;exitDx=0;exitDy=0;strokeWidth=2;strokeColor=#FF0000;" edge="1" parent="1" source="zmStRXuhUgsYv_nEsaAY-57">
          <mxGeometry relative="1" as="geometry">
            <mxPoint x="420" y="320" as="targetPoint" />
            <mxPoint x="827" y="-140" as="sourcePoint" />
          </mxGeometry>
        </mxCell>
        <mxCell id="zmStRXuhUgsYv_nEsaAY-62" value="&lt;font style=&quot;font-size: 32px;&quot;&gt;(5) &lt;font color=&quot;#ff0000&quot;&gt;Error&lt;/font&gt;: get all &quot;1&quot; bitmaps&lt;/font&gt;" style="text;html=1;strokeColor=none;fillColor=none;align=center;verticalAlign=middle;whiteSpace=wrap;rounded=0;" vertex="1" parent="1">
          <mxGeometry x="440" y="-160" width="400" height="40" as="geometry" />
        </mxCell>
        <mxCell id="zmStRXuhUgsYv_nEsaAY-63" value="&lt;font style=&quot;font-size: 36px;&quot;&gt;QEMU&lt;/font&gt;" style="text;html=1;strokeColor=none;fillColor=none;align=center;verticalAlign=middle;whiteSpace=wrap;rounded=0;" vertex="1" parent="1">
          <mxGeometry x="-360" y="-240" width="160" height="80" as="geometry" />
        </mxCell>
      </root>
    </mxGraphModel>
  </diagram>
</mxfile>
